<svg xmlns="http://www.w3.org/2000/svg" xmlns:xlink="http://www.w3.org/1999/xlink" viewBox="0,0,256,256" width="50px" height="50px" fill-rule="nonzero"><g fill="#e7d8f7" fill-rule="nonzero" stroke="none" stroke-width="1" stroke-linecap="butt" stroke-linejoin="miter" stroke-miterlimit="10" stroke-dasharray="" stroke-dashoffset="0" font-family="none" font-weight="none" font-size="none" text-anchor="none" style="mix-blend-mode: normal"><g transform="scale(5.12,5.12)"><path d="M12,2c-2.75,0 -5,2.25 -5,5v36c0,2.75 2.25,5 5,5h28c2.75,0 5,-2.25 5,-5v-36c0,-2.75 -2.25,-5 -5,-5zM12,4h28c1.66797,0 3,1.33203 3,3v36c0,1.66797 -1.33203,3 -3,3h-28c-1.66797,0 -3,-1.33203 -3,-3v-36c0,-1.66797 1.33203,-3 3,-3zM21.40625,9l-4.9375,0.03125c0,0 0.00391,16.23047 0.03125,16.15625c15.13672,-5.89062 14,-1.71875 14,-1.71875v17.46875h4.75v-17.40625c0,-9.58984 -13.84375,-4.125 -13.84375,-4.125zM31.65625,9.03125c0,0 -1.70703,3.94141 -3.59375,6.25h5.25c2.84766,-3.6875 3.78125,-6.25 3.78125,-6.25zM16.5625,30.96875v9.9375l4.96875,-4.96875z"></path></g></g></svg>